<mxfile host="app.diagrams.net" agent="Mozilla/5.0 (Windows NT 10.0; Win64; x64) AppleWebKit/537.36 (KHTML, like Gecko) Chrome/129.0.0.0 Safari/537.36 Edg/129.0.0.0" version="24.7.17">
  <diagram id="R2lEEEUBdFMjLlhIrx00" name="Page-1">
    <mxGraphModel dx="2276" dy="781" grid="1" gridSize="10" guides="1" tooltips="1" connect="1" arrows="1" fold="1" page="1" pageScale="1" pageWidth="850" pageHeight="1100" math="0" shadow="0" extFonts="Permanent Marker^https://fonts.googleapis.com/css?family=Permanent+Marker">
      <root>
        <mxCell id="0" />
        <mxCell id="1" parent="0" />
        <mxCell id="OtRgwi7iKYd2yxf2kKUD-1" value="&lt;font color=&quot;#000066&quot; face=&quot;sans-serif&quot;&gt;&lt;span style=&quot;font-size: 16.5px; font-variant-ligatures: common-ligatures; white-space: pre;&quot;&gt;Department&lt;/span&gt;&lt;/font&gt;" style="rounded=1;arcSize=10;whiteSpace=wrap;html=1;align=center;" vertex="1" parent="1">
          <mxGeometry x="-90" y="320" width="120" height="50" as="geometry" />
        </mxCell>
        <mxCell id="OtRgwi7iKYd2yxf2kKUD-3" value="DName" style="ellipse;whiteSpace=wrap;html=1;align=center;" vertex="1" parent="1">
          <mxGeometry x="-230" y="370" width="100" height="40" as="geometry" />
        </mxCell>
        <mxCell id="OtRgwi7iKYd2yxf2kKUD-6" value="DID" style="ellipse;whiteSpace=wrap;html=1;align=center;fontStyle=4;" vertex="1" parent="1">
          <mxGeometry x="-180" y="280" width="50" height="40" as="geometry" />
        </mxCell>
        <mxCell id="OtRgwi7iKYd2yxf2kKUD-7" value="Location" style="ellipse;whiteSpace=wrap;html=1;align=center;" vertex="1" parent="1">
          <mxGeometry x="-90" y="260" width="100" height="40" as="geometry" />
        </mxCell>
        <mxCell id="OtRgwi7iKYd2yxf2kKUD-8" value="" style="endArrow=none;html=1;rounded=0;entryX=0;entryY=0.75;entryDx=0;entryDy=0;" edge="1" parent="1" source="OtRgwi7iKYd2yxf2kKUD-3" target="OtRgwi7iKYd2yxf2kKUD-1">
          <mxGeometry relative="1" as="geometry">
            <mxPoint x="-240" y="344.5" as="sourcePoint" />
            <mxPoint x="-80" y="344.5" as="targetPoint" />
          </mxGeometry>
        </mxCell>
        <mxCell id="OtRgwi7iKYd2yxf2kKUD-9" value="" style="endArrow=none;html=1;rounded=0;exitX=1;exitY=1;exitDx=0;exitDy=0;" edge="1" parent="1" source="OtRgwi7iKYd2yxf2kKUD-6">
          <mxGeometry relative="1" as="geometry">
            <mxPoint x="-133" y="387" as="sourcePoint" />
            <mxPoint x="-90" y="330" as="targetPoint" />
            <Array as="points">
              <mxPoint x="-90" y="320" />
            </Array>
          </mxGeometry>
        </mxCell>
        <mxCell id="OtRgwi7iKYd2yxf2kKUD-12" value="" style="endArrow=none;html=1;rounded=0;exitX=0.5;exitY=1;exitDx=0;exitDy=0;" edge="1" parent="1" source="OtRgwi7iKYd2yxf2kKUD-7" target="OtRgwi7iKYd2yxf2kKUD-1">
          <mxGeometry relative="1" as="geometry">
            <mxPoint x="30" y="290" as="sourcePoint" />
            <mxPoint x="190" y="290" as="targetPoint" />
          </mxGeometry>
        </mxCell>
        <mxCell id="OtRgwi7iKYd2yxf2kKUD-13" value="NORoom" style="ellipse;whiteSpace=wrap;html=1;align=center;" vertex="1" parent="1">
          <mxGeometry x="-90" y="190" width="80" height="40" as="geometry" />
        </mxCell>
        <mxCell id="OtRgwi7iKYd2yxf2kKUD-14" value="Building" style="ellipse;whiteSpace=wrap;html=1;align=center;" vertex="1" parent="1">
          <mxGeometry y="190" width="90" height="40" as="geometry" />
        </mxCell>
        <mxCell id="OtRgwi7iKYd2yxf2kKUD-15" value="" style="endArrow=none;html=1;rounded=0;entryX=0.5;entryY=1;entryDx=0;entryDy=0;exitX=1;exitY=0.5;exitDx=0;exitDy=0;" edge="1" parent="1" source="OtRgwi7iKYd2yxf2kKUD-7" target="OtRgwi7iKYd2yxf2kKUD-14">
          <mxGeometry relative="1" as="geometry">
            <mxPoint x="20" y="250" as="sourcePoint" />
            <mxPoint x="180" y="250" as="targetPoint" />
          </mxGeometry>
        </mxCell>
        <mxCell id="OtRgwi7iKYd2yxf2kKUD-16" value="" style="endArrow=none;html=1;rounded=0;entryX=0;entryY=0;entryDx=0;entryDy=0;" edge="1" parent="1" source="OtRgwi7iKYd2yxf2kKUD-13" target="OtRgwi7iKYd2yxf2kKUD-7">
          <mxGeometry relative="1" as="geometry">
            <mxPoint x="-150" y="250" as="sourcePoint" />
            <mxPoint x="10" y="250" as="targetPoint" />
          </mxGeometry>
        </mxCell>
        <mxCell id="OtRgwi7iKYd2yxf2kKUD-17" value="&lt;font color=&quot;#000066&quot; face=&quot;sans-serif&quot;&gt;&lt;span style=&quot;font-size: 16.5px; font-variant-ligatures: common-ligatures; white-space: pre;&quot;&gt;Program&lt;/span&gt;&lt;/font&gt;" style="rounded=1;arcSize=10;whiteSpace=wrap;html=1;align=center;" vertex="1" parent="1">
          <mxGeometry x="260" y="325" width="130" height="40" as="geometry" />
        </mxCell>
        <mxCell id="OtRgwi7iKYd2yxf2kKUD-18" value="&lt;font color=&quot;#000066&quot; style=&quot;font-size: 15px;&quot;&gt;FacultyMembers&lt;/font&gt;" style="rounded=1;arcSize=10;whiteSpace=wrap;html=1;align=center;fontSize=15;" vertex="1" parent="1">
          <mxGeometry x="-90" y="535" width="150" height="50" as="geometry" />
        </mxCell>
        <mxCell id="OtRgwi7iKYd2yxf2kKUD-19" value="Code" style="ellipse;whiteSpace=wrap;html=1;align=center;fontStyle=4;" vertex="1" parent="1">
          <mxGeometry x="160" y="250" width="100" height="40" as="geometry" />
        </mxCell>
        <mxCell id="OtRgwi7iKYd2yxf2kKUD-20" value="PName" style="ellipse;whiteSpace=wrap;html=1;align=center;" vertex="1" parent="1">
          <mxGeometry x="314.6" y="250" width="75" height="30" as="geometry" />
        </mxCell>
        <mxCell id="OtRgwi7iKYd2yxf2kKUD-21" value="" style="endArrow=none;html=1;rounded=0;exitX=0.65;exitY=0.95;exitDx=0;exitDy=0;exitPerimeter=0;" edge="1" parent="1" source="OtRgwi7iKYd2yxf2kKUD-19" target="OtRgwi7iKYd2yxf2kKUD-17">
          <mxGeometry relative="1" as="geometry">
            <mxPoint x="110" y="319" as="sourcePoint" />
            <mxPoint x="270" y="319" as="targetPoint" />
          </mxGeometry>
        </mxCell>
        <mxCell id="OtRgwi7iKYd2yxf2kKUD-23" value="" style="endArrow=none;html=1;rounded=0;entryX=0.5;entryY=1;entryDx=0;entryDy=0;exitX=0.873;exitY=0;exitDx=0;exitDy=0;exitPerimeter=0;" edge="1" parent="1" source="OtRgwi7iKYd2yxf2kKUD-17" target="OtRgwi7iKYd2yxf2kKUD-20">
          <mxGeometry relative="1" as="geometry">
            <mxPoint x="380" y="340" as="sourcePoint" />
            <mxPoint x="540" y="340" as="targetPoint" />
          </mxGeometry>
        </mxCell>
        <mxCell id="OtRgwi7iKYd2yxf2kKUD-24" value="EID" style="ellipse;whiteSpace=wrap;html=1;align=center;fontStyle=4;" vertex="1" parent="1">
          <mxGeometry x="-230" y="530" width="70" height="40" as="geometry" />
        </mxCell>
        <mxCell id="OtRgwi7iKYd2yxf2kKUD-25" value="" style="endArrow=none;html=1;rounded=0;entryX=0;entryY=0.5;entryDx=0;entryDy=0;" edge="1" parent="1" target="OtRgwi7iKYd2yxf2kKUD-18">
          <mxGeometry relative="1" as="geometry">
            <mxPoint x="-160" y="549.5" as="sourcePoint" />
            <mxPoint x="-120" y="550" as="targetPoint" />
          </mxGeometry>
        </mxCell>
        <mxCell id="OtRgwi7iKYd2yxf2kKUD-27" value="FName" style="ellipse;whiteSpace=wrap;html=1;align=center;" vertex="1" parent="1">
          <mxGeometry x="-290" y="585" width="100" height="40" as="geometry" />
        </mxCell>
        <mxCell id="OtRgwi7iKYd2yxf2kKUD-28" value="Email" style="ellipse;whiteSpace=wrap;html=1;align=center;" vertex="1" parent="1">
          <mxGeometry x="20" y="680" width="100" height="40" as="geometry" />
        </mxCell>
        <mxCell id="OtRgwi7iKYd2yxf2kKUD-29" value="DateOfEmployment" style="ellipse;whiteSpace=wrap;html=1;align=center;" vertex="1" parent="1">
          <mxGeometry x="70" y="610" width="130" height="50" as="geometry" />
        </mxCell>
        <mxCell id="OtRgwi7iKYd2yxf2kKUD-30" value="Phone" style="ellipse;shape=doubleEllipse;margin=3;whiteSpace=wrap;html=1;align=center;" vertex="1" parent="1">
          <mxGeometry x="-110" y="680" width="100" height="40" as="geometry" />
        </mxCell>
        <mxCell id="OtRgwi7iKYd2yxf2kKUD-31" value="" style="endArrow=none;html=1;rounded=0;exitX=0.73;exitY=0.125;exitDx=0;exitDy=0;exitPerimeter=0;entryX=0;entryY=0.75;entryDx=0;entryDy=0;" edge="1" parent="1" source="OtRgwi7iKYd2yxf2kKUD-27" target="OtRgwi7iKYd2yxf2kKUD-18">
          <mxGeometry relative="1" as="geometry">
            <mxPoint x="-250" y="570" as="sourcePoint" />
            <mxPoint x="-90" y="570" as="targetPoint" />
          </mxGeometry>
        </mxCell>
        <mxCell id="OtRgwi7iKYd2yxf2kKUD-32" value="" style="endArrow=none;html=1;rounded=0;exitX=0.5;exitY=0;exitDx=0;exitDy=0;entryX=0;entryY=1;entryDx=0;entryDy=0;" edge="1" parent="1" source="OtRgwi7iKYd2yxf2kKUD-30" target="OtRgwi7iKYd2yxf2kKUD-42">
          <mxGeometry relative="1" as="geometry">
            <mxPoint x="-80" y="617" as="sourcePoint" />
            <mxPoint x="-33" y="575" as="targetPoint" />
          </mxGeometry>
        </mxCell>
        <mxCell id="OtRgwi7iKYd2yxf2kKUD-33" value="" style="endArrow=none;html=1;rounded=0;" edge="1" parent="1" source="OtRgwi7iKYd2yxf2kKUD-28" target="OtRgwi7iKYd2yxf2kKUD-42">
          <mxGeometry relative="1" as="geometry">
            <mxPoint x="-40" y="630" as="sourcePoint" />
            <mxPoint x="-17" y="580" as="targetPoint" />
            <Array as="points" />
          </mxGeometry>
        </mxCell>
        <mxCell id="OtRgwi7iKYd2yxf2kKUD-34" value="" style="endArrow=none;html=1;rounded=0;entryX=0;entryY=0.5;entryDx=0;entryDy=0;exitX=1;exitY=0.75;exitDx=0;exitDy=0;" edge="1" parent="1" source="OtRgwi7iKYd2yxf2kKUD-18" target="OtRgwi7iKYd2yxf2kKUD-29">
          <mxGeometry relative="1" as="geometry">
            <mxPoint x="60" y="570" as="sourcePoint" />
            <mxPoint x="190" y="560" as="targetPoint" />
          </mxGeometry>
        </mxCell>
        <mxCell id="OtRgwi7iKYd2yxf2kKUD-35" value=" degree" style="ellipse;whiteSpace=wrap;html=1;align=center;" vertex="1" parent="1">
          <mxGeometry x="225" y="200" width="100" height="40" as="geometry" />
        </mxCell>
        <mxCell id="OtRgwi7iKYd2yxf2kKUD-37" value="" style="endArrow=none;html=1;rounded=0;exitX=0.567;exitY=-0.08;exitDx=0;exitDy=0;exitPerimeter=0;entryX=0.5;entryY=1;entryDx=0;entryDy=0;" edge="1" parent="1" source="OtRgwi7iKYd2yxf2kKUD-17" target="OtRgwi7iKYd2yxf2kKUD-35">
          <mxGeometry relative="1" as="geometry">
            <mxPoint x="140" y="240" as="sourcePoint" />
            <mxPoint x="300" y="240" as="targetPoint" />
          </mxGeometry>
        </mxCell>
        <mxCell id="OtRgwi7iKYd2yxf2kKUD-38" value="  duration " style="ellipse;whiteSpace=wrap;html=1;align=center;" vertex="1" parent="1">
          <mxGeometry x="412.1" y="230" width="70" height="40" as="geometry" />
        </mxCell>
        <mxCell id="OtRgwi7iKYd2yxf2kKUD-39" value="" style="endArrow=none;html=1;rounded=0;exitX=1;exitY=0.5;exitDx=0;exitDy=0;entryX=0;entryY=0.5;entryDx=0;entryDy=0;" edge="1" parent="1" source="OtRgwi7iKYd2yxf2kKUD-17" target="OtRgwi7iKYd2yxf2kKUD-38">
          <mxGeometry relative="1" as="geometry">
            <mxPoint x="250" y="344.5" as="sourcePoint" />
            <mxPoint x="430" y="345" as="targetPoint" />
          </mxGeometry>
        </mxCell>
        <mxCell id="OtRgwi7iKYd2yxf2kKUD-42" value="contactM" style="ellipse;whiteSpace=wrap;html=1;align=center;" vertex="1" parent="1">
          <mxGeometry x="-50" y="610" width="100" height="40" as="geometry" />
        </mxCell>
        <mxCell id="OtRgwi7iKYd2yxf2kKUD-43" value="" style="endArrow=none;html=1;rounded=0;exitX=0.33;exitY=0.025;exitDx=0;exitDy=0;exitPerimeter=0;entryX=0.5;entryY=1;entryDx=0;entryDy=0;" edge="1" parent="1" source="OtRgwi7iKYd2yxf2kKUD-42" target="OtRgwi7iKYd2yxf2kKUD-18">
          <mxGeometry relative="1" as="geometry">
            <mxPoint x="-57" y="613.5" as="sourcePoint" />
            <mxPoint x="-10" y="580" as="targetPoint" />
          </mxGeometry>
        </mxCell>
        <mxCell id="OtRgwi7iKYd2yxf2kKUD-44" value="Rank" style="ellipse;whiteSpace=wrap;html=1;align=center;" vertex="1" parent="1">
          <mxGeometry x="-200" y="620" width="100" height="40" as="geometry" />
        </mxCell>
        <mxCell id="OtRgwi7iKYd2yxf2kKUD-45" value="" style="endArrow=none;html=1;rounded=0;entryX=0.64;entryY=0.075;entryDx=0;entryDy=0;entryPerimeter=0;exitX=0.127;exitY=1;exitDx=0;exitDy=0;exitPerimeter=0;" edge="1" parent="1" source="OtRgwi7iKYd2yxf2kKUD-18" target="OtRgwi7iKYd2yxf2kKUD-44">
          <mxGeometry relative="1" as="geometry">
            <mxPoint x="-140" y="410" as="sourcePoint" />
            <mxPoint x="20" y="410" as="targetPoint" />
          </mxGeometry>
        </mxCell>
        <mxCell id="OtRgwi7iKYd2yxf2kKUD-46" value="&lt;font color=&quot;#000066&quot; face=&quot;sans-serif&quot;&gt;&lt;span style=&quot;font-size: 16.5px; font-variant-ligatures: common-ligatures; white-space: pre;&quot;&gt;Student&lt;/span&gt;&lt;/font&gt;" style="rounded=1;arcSize=10;whiteSpace=wrap;html=1;align=center;" vertex="1" parent="1">
          <mxGeometry x="432.1" y="627" width="130" height="58" as="geometry" />
        </mxCell>
        <mxCell id="OtRgwi7iKYd2yxf2kKUD-47" value="DateOfEnrollment" style="ellipse;whiteSpace=wrap;html=1;align=center;" vertex="1" parent="1">
          <mxGeometry x="570" y="705" width="100" height="40" as="geometry" />
        </mxCell>
        <mxCell id="OtRgwi7iKYd2yxf2kKUD-48" value="SID" style="ellipse;whiteSpace=wrap;html=1;align=center;fontStyle=4;" vertex="1" parent="1">
          <mxGeometry x="322.1" y="680" width="60" height="40" as="geometry" />
        </mxCell>
        <mxCell id="OtRgwi7iKYd2yxf2kKUD-49" value="NameL" style="ellipse;whiteSpace=wrap;html=1;align=center;" vertex="1" parent="1">
          <mxGeometry x="302.1" y="855" width="100" height="40" as="geometry" />
        </mxCell>
        <mxCell id="OtRgwi7iKYd2yxf2kKUD-50" value="SEmail" style="ellipse;whiteSpace=wrap;html=1;align=center;" vertex="1" parent="1">
          <mxGeometry x="457.1" y="778" width="100" height="40" as="geometry" />
        </mxCell>
        <mxCell id="OtRgwi7iKYd2yxf2kKUD-51" value="" style="endArrow=none;html=1;rounded=0;exitX=0.69;exitY=-0.05;exitDx=0;exitDy=0;entryX=0;entryY=1;entryDx=0;entryDy=0;exitPerimeter=0;" edge="1" parent="1" source="OtRgwi7iKYd2yxf2kKUD-53" target="OtRgwi7iKYd2yxf2kKUD-54">
          <mxGeometry relative="1" as="geometry">
            <mxPoint x="387.1" y="778" as="sourcePoint" />
            <mxPoint x="402.1" y="742" as="targetPoint" />
          </mxGeometry>
        </mxCell>
        <mxCell id="OtRgwi7iKYd2yxf2kKUD-52" value="" style="endArrow=none;html=1;rounded=0;entryX=1;entryY=1;entryDx=0;entryDy=0;" edge="1" source="OtRgwi7iKYd2yxf2kKUD-50" parent="1" target="OtRgwi7iKYd2yxf2kKUD-54">
          <mxGeometry relative="1" as="geometry">
            <mxPoint x="397.1" y="728" as="sourcePoint" />
            <mxPoint x="456.1" y="747" as="targetPoint" />
            <Array as="points" />
          </mxGeometry>
        </mxCell>
        <mxCell id="OtRgwi7iKYd2yxf2kKUD-53" value="SPhone" style="ellipse;shape=doubleEllipse;margin=3;whiteSpace=wrap;html=1;align=center;" vertex="1" parent="1">
          <mxGeometry x="342.1" y="778" width="100" height="40" as="geometry" />
        </mxCell>
        <mxCell id="OtRgwi7iKYd2yxf2kKUD-54" value="contactS" style="ellipse;whiteSpace=wrap;html=1;align=center;" vertex="1" parent="1">
          <mxGeometry x="412.1" y="715" width="100" height="40" as="geometry" />
        </mxCell>
        <mxCell id="OtRgwi7iKYd2yxf2kKUD-56" value="" style="endArrow=none;html=1;rounded=0;exitX=0.46;exitY=0.98;exitDx=0;exitDy=0;exitPerimeter=0;entryX=0.5;entryY=0;entryDx=0;entryDy=0;" edge="1" parent="1" source="OtRgwi7iKYd2yxf2kKUD-46" target="OtRgwi7iKYd2yxf2kKUD-54">
          <mxGeometry relative="1" as="geometry">
            <mxPoint x="277.1" y="702" as="sourcePoint" />
            <mxPoint x="437.1" y="702" as="targetPoint" />
          </mxGeometry>
        </mxCell>
        <mxCell id="OtRgwi7iKYd2yxf2kKUD-57" value="" style="endArrow=none;html=1;rounded=0;exitX=0.947;exitY=0.96;exitDx=0;exitDy=0;exitPerimeter=0;" edge="1" parent="1" source="OtRgwi7iKYd2yxf2kKUD-46" target="OtRgwi7iKYd2yxf2kKUD-47">
          <mxGeometry relative="1" as="geometry">
            <mxPoint x="507.1" y="636.5" as="sourcePoint" />
            <mxPoint x="563.1" y="702" as="targetPoint" />
          </mxGeometry>
        </mxCell>
        <mxCell id="OtRgwi7iKYd2yxf2kKUD-58" value="" style="endArrow=none;html=1;rounded=0;entryX=0.967;entryY=0.7;entryDx=0;entryDy=0;entryPerimeter=0;" edge="1" parent="1" source="OtRgwi7iKYd2yxf2kKUD-46" target="OtRgwi7iKYd2yxf2kKUD-48">
          <mxGeometry relative="1" as="geometry">
            <mxPoint x="387.1" y="582" as="sourcePoint" />
            <mxPoint x="357.1" y="572" as="targetPoint" />
          </mxGeometry>
        </mxCell>
        <mxCell id="OtRgwi7iKYd2yxf2kKUD-59" value="" style="endArrow=none;html=1;rounded=0;exitX=0.75;exitY=1;exitDx=0;exitDy=0;entryX=0;entryY=0.5;entryDx=0;entryDy=0;" edge="1" parent="1" source="OtRgwi7iKYd2yxf2kKUD-46" target="OtRgwi7iKYd2yxf2kKUD-61">
          <mxGeometry relative="1" as="geometry">
            <mxPoint x="127.1" y="562" as="sourcePoint" />
            <mxPoint x="562.1" y="615" as="targetPoint" />
          </mxGeometry>
        </mxCell>
        <mxCell id="OtRgwi7iKYd2yxf2kKUD-61" value="status" style="ellipse;whiteSpace=wrap;html=1;align=center;" vertex="1" parent="1">
          <mxGeometry x="557.1" y="755" width="60" height="30" as="geometry" />
        </mxCell>
        <mxCell id="OtRgwi7iKYd2yxf2kKUD-62" value="" style="endArrow=none;html=1;rounded=0;entryX=0.187;entryY=0.98;entryDx=0;entryDy=0;entryPerimeter=0;exitX=0.67;exitY=0.1;exitDx=0;exitDy=0;exitPerimeter=0;" edge="1" parent="1" source="OtRgwi7iKYd2yxf2kKUD-95" target="OtRgwi7iKYd2yxf2kKUD-46">
          <mxGeometry relative="1" as="geometry">
            <mxPoint x="307.1" y="735" as="sourcePoint" />
            <mxPoint x="342.1" y="655" as="targetPoint" />
          </mxGeometry>
        </mxCell>
        <mxCell id="OtRgwi7iKYd2yxf2kKUD-63" value="&lt;font color=&quot;#000066&quot; face=&quot;sans-serif&quot;&gt;&lt;span style=&quot;font-size: 16.5px; font-variant-ligatures: common-ligatures; white-space: pre;&quot;&gt;Courses&lt;/span&gt;&lt;/font&gt;" style="rounded=1;arcSize=10;whiteSpace=wrap;html=1;align=center;" vertex="1" parent="1">
          <mxGeometry x="670" y="320" width="120" height="40" as="geometry" />
        </mxCell>
        <mxCell id="OtRgwi7iKYd2yxf2kKUD-64" value="CCode" style="ellipse;whiteSpace=wrap;html=1;align=center;fontStyle=4;" vertex="1" parent="1">
          <mxGeometry x="610" y="230" width="100" height="40" as="geometry" />
        </mxCell>
        <mxCell id="OtRgwi7iKYd2yxf2kKUD-65" value="title" style="ellipse;whiteSpace=wrap;html=1;align=center;" vertex="1" parent="1">
          <mxGeometry x="740" y="210" width="70" height="40" as="geometry" />
        </mxCell>
        <mxCell id="OtRgwi7iKYd2yxf2kKUD-66" value="description" style="ellipse;whiteSpace=wrap;html=1;align=center;" vertex="1" parent="1">
          <mxGeometry x="810" y="250" width="70" height="40" as="geometry" />
        </mxCell>
        <mxCell id="OtRgwi7iKYd2yxf2kKUD-67" value="NoCredits" style="ellipse;whiteSpace=wrap;html=1;align=center;" vertex="1" parent="1">
          <mxGeometry x="850" y="300" width="70" height="40" as="geometry" />
        </mxCell>
        <mxCell id="OtRgwi7iKYd2yxf2kKUD-69" value="" style="endArrow=none;html=1;rounded=0;exitX=0.5;exitY=1;exitDx=0;exitDy=0;entryX=0.4;entryY=0.1;entryDx=0;entryDy=0;entryPerimeter=0;" edge="1" parent="1" source="OtRgwi7iKYd2yxf2kKUD-64" target="OtRgwi7iKYd2yxf2kKUD-63">
          <mxGeometry relative="1" as="geometry">
            <mxPoint x="515" y="389.5" as="sourcePoint" />
            <mxPoint x="675" y="389.5" as="targetPoint" />
          </mxGeometry>
        </mxCell>
        <mxCell id="OtRgwi7iKYd2yxf2kKUD-70" value="" style="endArrow=none;html=1;rounded=0;entryX=0.5;entryY=1;entryDx=0;entryDy=0;" edge="1" parent="1" source="OtRgwi7iKYd2yxf2kKUD-63" target="OtRgwi7iKYd2yxf2kKUD-65">
          <mxGeometry relative="1" as="geometry">
            <mxPoint x="70" y="500" as="sourcePoint" />
            <mxPoint x="230" y="500" as="targetPoint" />
          </mxGeometry>
        </mxCell>
        <mxCell id="OtRgwi7iKYd2yxf2kKUD-71" value="" style="endArrow=none;html=1;rounded=0;entryX=0.071;entryY=0.675;entryDx=0;entryDy=0;entryPerimeter=0;exitX=1;exitY=0.25;exitDx=0;exitDy=0;" edge="1" parent="1" source="OtRgwi7iKYd2yxf2kKUD-63" target="OtRgwi7iKYd2yxf2kKUD-67">
          <mxGeometry relative="1" as="geometry">
            <mxPoint x="70" y="500" as="sourcePoint" />
            <mxPoint x="230" y="500" as="targetPoint" />
          </mxGeometry>
        </mxCell>
        <mxCell id="OtRgwi7iKYd2yxf2kKUD-73" value="" style="endArrow=none;html=1;rounded=0;exitX=0.833;exitY=0.04;exitDx=0;exitDy=0;exitPerimeter=0;" edge="1" parent="1" source="OtRgwi7iKYd2yxf2kKUD-63" target="OtRgwi7iKYd2yxf2kKUD-66">
          <mxGeometry relative="1" as="geometry">
            <mxPoint x="140" y="500" as="sourcePoint" />
            <mxPoint x="300" y="500" as="targetPoint" />
          </mxGeometry>
        </mxCell>
        <mxCell id="OtRgwi7iKYd2yxf2kKUD-74" value="&lt;font style=&quot;font-size: 18px;&quot; color=&quot;#000066&quot;&gt;Classes&lt;/font&gt;" style="rounded=1;arcSize=10;whiteSpace=wrap;html=1;align=center;fontSize=18;" vertex="1" parent="1">
          <mxGeometry x="810" y="537.5" width="120" height="45" as="geometry" />
        </mxCell>
        <mxCell id="OtRgwi7iKYd2yxf2kKUD-75" value="CID" style="ellipse;whiteSpace=wrap;html=1;align=center;fontStyle=4;" vertex="1" parent="1">
          <mxGeometry x="940" y="473.25" width="100" height="40" as="geometry" />
        </mxCell>
        <mxCell id="OtRgwi7iKYd2yxf2kKUD-76" value=" schedule" style="ellipse;whiteSpace=wrap;html=1;align=center;" vertex="1" parent="1">
          <mxGeometry x="870" y="613.25" width="100" height="40" as="geometry" />
        </mxCell>
        <mxCell id="OtRgwi7iKYd2yxf2kKUD-77" value="RoomLocation" style="ellipse;whiteSpace=wrap;html=1;align=center;" vertex="1" parent="1">
          <mxGeometry x="970" y="533.25" width="100" height="40" as="geometry" />
        </mxCell>
        <mxCell id="OtRgwi7iKYd2yxf2kKUD-78" value="" style="endArrow=none;html=1;rounded=0;" edge="1" parent="1" source="OtRgwi7iKYd2yxf2kKUD-76" target="OtRgwi7iKYd2yxf2kKUD-74">
          <mxGeometry relative="1" as="geometry">
            <mxPoint x="720" y="535.25" as="sourcePoint" />
            <mxPoint x="880" y="583.25" as="targetPoint" />
          </mxGeometry>
        </mxCell>
        <mxCell id="OtRgwi7iKYd2yxf2kKUD-79" value="" style="endArrow=none;html=1;rounded=0;entryX=0;entryY=1;entryDx=0;entryDy=0;" edge="1" parent="1" source="OtRgwi7iKYd2yxf2kKUD-74" target="OtRgwi7iKYd2yxf2kKUD-77">
          <mxGeometry relative="1" as="geometry">
            <mxPoint x="940" y="572" as="sourcePoint" />
            <mxPoint x="990" y="623.25" as="targetPoint" />
          </mxGeometry>
        </mxCell>
        <mxCell id="OtRgwi7iKYd2yxf2kKUD-80" value="" style="endArrow=none;html=1;rounded=0;entryX=0.23;entryY=0.975;entryDx=0;entryDy=0;entryPerimeter=0;" edge="1" parent="1" source="OtRgwi7iKYd2yxf2kKUD-74" target="OtRgwi7iKYd2yxf2kKUD-75">
          <mxGeometry relative="1" as="geometry">
            <mxPoint x="901.96" y="538.25" as="sourcePoint" />
            <mxPoint x="970" y="503.25" as="targetPoint" />
          </mxGeometry>
        </mxCell>
        <mxCell id="OtRgwi7iKYd2yxf2kKUD-81" value=" Time" style="ellipse;whiteSpace=wrap;html=1;align=center;" vertex="1" parent="1">
          <mxGeometry x="1000" y="623.25" width="70" height="47" as="geometry" />
        </mxCell>
        <mxCell id="OtRgwi7iKYd2yxf2kKUD-82" value="Days" style="ellipse;whiteSpace=wrap;html=1;align=center;" vertex="1" parent="1">
          <mxGeometry x="940" y="679.75" width="70" height="47" as="geometry" />
        </mxCell>
        <mxCell id="OtRgwi7iKYd2yxf2kKUD-85" value="" style="endArrow=none;html=1;rounded=0;entryX=0.27;entryY=0.85;entryDx=0;entryDy=0;entryPerimeter=0;" edge="1" parent="1" source="OtRgwi7iKYd2yxf2kKUD-82" target="OtRgwi7iKYd2yxf2kKUD-76">
          <mxGeometry relative="1" as="geometry">
            <mxPoint x="280" y="403.25" as="sourcePoint" />
            <mxPoint x="440" y="403.25" as="targetPoint" />
          </mxGeometry>
        </mxCell>
        <mxCell id="OtRgwi7iKYd2yxf2kKUD-86" value="" style="endArrow=none;html=1;rounded=0;" edge="1" parent="1" source="OtRgwi7iKYd2yxf2kKUD-76" target="OtRgwi7iKYd2yxf2kKUD-81">
          <mxGeometry relative="1" as="geometry">
            <mxPoint x="470" y="403.25" as="sourcePoint" />
            <mxPoint x="630" y="403.25" as="targetPoint" />
          </mxGeometry>
        </mxCell>
        <mxCell id="OtRgwi7iKYd2yxf2kKUD-87" value="Lname" style="ellipse;whiteSpace=wrap;html=1;align=center;" vertex="1" parent="1">
          <mxGeometry x="-425" y="550" width="100" height="40" as="geometry" />
        </mxCell>
        <mxCell id="OtRgwi7iKYd2yxf2kKUD-88" value="Secondname" style="ellipse;whiteSpace=wrap;html=1;align=center;" vertex="1" parent="1">
          <mxGeometry x="-410" y="623.5" width="100" height="40" as="geometry" />
        </mxCell>
        <mxCell id="OtRgwi7iKYd2yxf2kKUD-89" value="Firstname" style="ellipse;whiteSpace=wrap;html=1;align=center;" vertex="1" parent="1">
          <mxGeometry x="-330" y="663.5" width="100" height="50" as="geometry" />
        </mxCell>
        <mxCell id="OtRgwi7iKYd2yxf2kKUD-90" value="" style="endArrow=none;html=1;rounded=0;exitX=0;exitY=0;exitDx=0;exitDy=0;" edge="1" parent="1" source="OtRgwi7iKYd2yxf2kKUD-27" target="OtRgwi7iKYd2yxf2kKUD-87">
          <mxGeometry relative="1" as="geometry">
            <mxPoint x="-170" y="500" as="sourcePoint" />
            <mxPoint x="-10" y="500" as="targetPoint" />
          </mxGeometry>
        </mxCell>
        <mxCell id="OtRgwi7iKYd2yxf2kKUD-91" value="" style="endArrow=none;html=1;rounded=0;entryX=0.67;entryY=0.063;entryDx=0;entryDy=0;entryPerimeter=0;exitX=0.27;exitY=0.85;exitDx=0;exitDy=0;exitPerimeter=0;" edge="1" parent="1" source="OtRgwi7iKYd2yxf2kKUD-27" target="OtRgwi7iKYd2yxf2kKUD-88">
          <mxGeometry relative="1" as="geometry">
            <mxPoint x="-170" y="500" as="sourcePoint" />
            <mxPoint x="-10" y="500" as="targetPoint" />
          </mxGeometry>
        </mxCell>
        <mxCell id="OtRgwi7iKYd2yxf2kKUD-92" value="" style="endArrow=none;html=1;rounded=0;entryX=0.71;entryY=0.11;entryDx=0;entryDy=0;entryPerimeter=0;exitX=0.5;exitY=1;exitDx=0;exitDy=0;" edge="1" parent="1" source="OtRgwi7iKYd2yxf2kKUD-27" target="OtRgwi7iKYd2yxf2kKUD-89">
          <mxGeometry relative="1" as="geometry">
            <mxPoint x="-170" y="500" as="sourcePoint" />
            <mxPoint x="-10" y="500" as="targetPoint" />
          </mxGeometry>
        </mxCell>
        <mxCell id="OtRgwi7iKYd2yxf2kKUD-93" value="NameF" style="ellipse;whiteSpace=wrap;html=1;align=center;" vertex="1" parent="1">
          <mxGeometry x="160" y="855" width="100" height="40" as="geometry" />
        </mxCell>
        <mxCell id="OtRgwi7iKYd2yxf2kKUD-94" value="NameS" style="ellipse;whiteSpace=wrap;html=1;align=center;" vertex="1" parent="1">
          <mxGeometry x="60" y="800" width="100" height="40" as="geometry" />
        </mxCell>
        <mxCell id="OtRgwi7iKYd2yxf2kKUD-95" value="SudentName" style="ellipse;whiteSpace=wrap;html=1;align=center;" vertex="1" parent="1">
          <mxGeometry x="252.1" y="745" width="100" height="40" as="geometry" />
        </mxCell>
        <mxCell id="OtRgwi7iKYd2yxf2kKUD-98" value="" style="endArrow=none;html=1;rounded=0;entryX=0.8;entryY=0;entryDx=0;entryDy=0;entryPerimeter=0;exitX=0.07;exitY=0.65;exitDx=0;exitDy=0;exitPerimeter=0;" edge="1" parent="1" source="OtRgwi7iKYd2yxf2kKUD-95" target="OtRgwi7iKYd2yxf2kKUD-94">
          <mxGeometry relative="1" as="geometry">
            <mxPoint x="140" y="500" as="sourcePoint" />
            <mxPoint x="300" y="500" as="targetPoint" />
          </mxGeometry>
        </mxCell>
        <mxCell id="OtRgwi7iKYd2yxf2kKUD-99" value="" style="endArrow=none;html=1;rounded=0;exitX=0.3;exitY=1;exitDx=0;exitDy=0;exitPerimeter=0;entryX=0.58;entryY=-0.025;entryDx=0;entryDy=0;entryPerimeter=0;" edge="1" parent="1" source="OtRgwi7iKYd2yxf2kKUD-95" target="OtRgwi7iKYd2yxf2kKUD-93">
          <mxGeometry relative="1" as="geometry">
            <mxPoint x="142.1" y="565" as="sourcePoint" />
            <mxPoint x="249.99952505533346" y="865.2511873616659" as="targetPoint" />
          </mxGeometry>
        </mxCell>
        <mxCell id="OtRgwi7iKYd2yxf2kKUD-100" value="" style="endArrow=none;html=1;rounded=0;entryX=0.43;entryY=0.05;entryDx=0;entryDy=0;entryPerimeter=0;exitX=0.57;exitY=0.925;exitDx=0;exitDy=0;exitPerimeter=0;" edge="1" parent="1" source="OtRgwi7iKYd2yxf2kKUD-95" target="OtRgwi7iKYd2yxf2kKUD-49">
          <mxGeometry relative="1" as="geometry">
            <mxPoint x="142.1" y="565" as="sourcePoint" />
            <mxPoint x="302.1" y="565" as="targetPoint" />
          </mxGeometry>
        </mxCell>
        <mxCell id="OtRgwi7iKYd2yxf2kKUD-101" value=" manage" style="shape=rhombus;perimeter=rhombusPerimeter;whiteSpace=wrap;html=1;align=center;" vertex="1" parent="1">
          <mxGeometry x="35" y="430" width="85" height="50" as="geometry" />
        </mxCell>
        <mxCell id="OtRgwi7iKYd2yxf2kKUD-102" value="" style="endArrow=none;html=1;rounded=0;exitX=0.5;exitY=1;exitDx=0;exitDy=0;entryX=0.5;entryY=0;entryDx=0;entryDy=0;" edge="1" parent="1" source="OtRgwi7iKYd2yxf2kKUD-101" target="OtRgwi7iKYd2yxf2kKUD-18">
          <mxGeometry relative="1" as="geometry">
            <mxPoint x="140" y="500" as="sourcePoint" />
            <mxPoint x="300" y="500" as="targetPoint" />
          </mxGeometry>
        </mxCell>
        <mxCell id="OtRgwi7iKYd2yxf2kKUD-103" value="1" style="resizable=0;html=1;whiteSpace=wrap;align=right;verticalAlign=bottom;" connectable="0" vertex="1" parent="OtRgwi7iKYd2yxf2kKUD-102">
          <mxGeometry x="1" relative="1" as="geometry" />
        </mxCell>
        <mxCell id="OtRgwi7iKYd2yxf2kKUD-106" value=" Has" style="shape=rhombus;perimeter=rhombusPerimeter;whiteSpace=wrap;html=1;align=center;" vertex="1" parent="1">
          <mxGeometry x="-215" y="440" width="85" height="50" as="geometry" />
        </mxCell>
        <mxCell id="OtRgwi7iKYd2yxf2kKUD-107" value="" style="endArrow=none;html=1;rounded=0;entryX=0.08;entryY=0.02;entryDx=0;entryDy=0;entryPerimeter=0;exitX=0.5;exitY=1;exitDx=0;exitDy=0;" edge="1" parent="1" source="OtRgwi7iKYd2yxf2kKUD-106" target="OtRgwi7iKYd2yxf2kKUD-18">
          <mxGeometry relative="1" as="geometry">
            <mxPoint x="140" y="500" as="sourcePoint" />
            <mxPoint x="300" y="500" as="targetPoint" />
          </mxGeometry>
        </mxCell>
        <mxCell id="OtRgwi7iKYd2yxf2kKUD-108" value="N" style="resizable=0;html=1;whiteSpace=wrap;align=right;verticalAlign=bottom;" connectable="0" vertex="1" parent="OtRgwi7iKYd2yxf2kKUD-107">
          <mxGeometry x="1" relative="1" as="geometry" />
        </mxCell>
        <mxCell id="OtRgwi7iKYd2yxf2kKUD-109" value="" style="endArrow=none;html=1;rounded=0;entryX=0.117;entryY=1.02;entryDx=0;entryDy=0;entryPerimeter=0;exitX=0.5;exitY=0;exitDx=0;exitDy=0;" edge="1" parent="1" source="OtRgwi7iKYd2yxf2kKUD-106" target="OtRgwi7iKYd2yxf2kKUD-1">
          <mxGeometry relative="1" as="geometry">
            <mxPoint x="140" y="500" as="sourcePoint" />
            <mxPoint x="300" y="500" as="targetPoint" />
          </mxGeometry>
        </mxCell>
        <mxCell id="OtRgwi7iKYd2yxf2kKUD-110" value="1" style="resizable=0;html=1;whiteSpace=wrap;align=right;verticalAlign=bottom;" connectable="0" vertex="1" parent="OtRgwi7iKYd2yxf2kKUD-109">
          <mxGeometry x="1" relative="1" as="geometry" />
        </mxCell>
        <mxCell id="OtRgwi7iKYd2yxf2kKUD-112" value="offers" style="shape=rhombus;perimeter=rhombusPerimeter;whiteSpace=wrap;html=1;align=center;" vertex="1" parent="1">
          <mxGeometry x="120" y="320" width="70" height="50" as="geometry" />
        </mxCell>
        <mxCell id="OtRgwi7iKYd2yxf2kKUD-113" value="" style="endArrow=none;html=1;rounded=0;entryX=1;entryY=0.5;entryDx=0;entryDy=0;exitX=0;exitY=0.5;exitDx=0;exitDy=0;" edge="1" parent="1" source="OtRgwi7iKYd2yxf2kKUD-112" target="OtRgwi7iKYd2yxf2kKUD-1">
          <mxGeometry relative="1" as="geometry">
            <mxPoint x="190" y="540" as="sourcePoint" />
            <mxPoint x="350" y="540" as="targetPoint" />
          </mxGeometry>
        </mxCell>
        <mxCell id="OtRgwi7iKYd2yxf2kKUD-114" value="1" style="resizable=0;html=1;whiteSpace=wrap;align=right;verticalAlign=bottom;" connectable="0" vertex="1" parent="OtRgwi7iKYd2yxf2kKUD-113">
          <mxGeometry x="1" relative="1" as="geometry" />
        </mxCell>
        <mxCell id="OtRgwi7iKYd2yxf2kKUD-115" value="" style="endArrow=none;html=1;rounded=0;entryX=0;entryY=0.5;entryDx=0;entryDy=0;exitX=1;exitY=0.5;exitDx=0;exitDy=0;" edge="1" parent="1" source="OtRgwi7iKYd2yxf2kKUD-112" target="OtRgwi7iKYd2yxf2kKUD-17">
          <mxGeometry relative="1" as="geometry">
            <mxPoint x="90" y="344.5" as="sourcePoint" />
            <mxPoint x="250" y="344.5" as="targetPoint" />
          </mxGeometry>
        </mxCell>
        <mxCell id="OtRgwi7iKYd2yxf2kKUD-116" value="N" style="resizable=0;html=1;whiteSpace=wrap;align=right;verticalAlign=bottom;" connectable="0" vertex="1" parent="OtRgwi7iKYd2yxf2kKUD-115">
          <mxGeometry x="1" relative="1" as="geometry" />
        </mxCell>
        <mxCell id="OtRgwi7iKYd2yxf2kKUD-118" value="teach" style="shape=rhombus;perimeter=rhombusPerimeter;whiteSpace=wrap;html=1;align=center;" vertex="1" parent="1">
          <mxGeometry x="240" y="463.25" width="80" height="60" as="geometry" />
        </mxCell>
        <mxCell id="OtRgwi7iKYd2yxf2kKUD-121" value="" style="endArrow=none;html=1;rounded=0;entryX=0;entryY=0.75;entryDx=0;entryDy=0;exitX=1;exitY=0.5;exitDx=0;exitDy=0;" edge="1" parent="1" source="OtRgwi7iKYd2yxf2kKUD-118" target="OtRgwi7iKYd2yxf2kKUD-63">
          <mxGeometry relative="1" as="geometry">
            <mxPoint x="190" y="540" as="sourcePoint" />
            <mxPoint x="350" y="540" as="targetPoint" />
          </mxGeometry>
        </mxCell>
        <mxCell id="OtRgwi7iKYd2yxf2kKUD-122" value="1" style="resizable=0;html=1;whiteSpace=wrap;align=right;verticalAlign=bottom;" connectable="0" vertex="1" parent="OtRgwi7iKYd2yxf2kKUD-121">
          <mxGeometry x="1" relative="1" as="geometry" />
        </mxCell>
        <mxCell id="OtRgwi7iKYd2yxf2kKUD-123" value=" advisors" style="shape=rhombus;perimeter=rhombusPerimeter;whiteSpace=wrap;html=1;align=center;" vertex="1" parent="1">
          <mxGeometry x="210" y="606" width="80" height="30" as="geometry" />
        </mxCell>
        <mxCell id="OtRgwi7iKYd2yxf2kKUD-124" value="GPA" style="ellipse;whiteSpace=wrap;html=1;align=center;" vertex="1" parent="1">
          <mxGeometry x="397.1" y="582.5" width="60" height="35" as="geometry" />
        </mxCell>
        <mxCell id="OtRgwi7iKYd2yxf2kKUD-126" value="" style="endArrow=none;html=1;rounded=0;exitX=0.683;exitY=0.943;exitDx=0;exitDy=0;entryX=0.5;entryY=0;entryDx=0;entryDy=0;exitPerimeter=0;" edge="1" parent="1" source="OtRgwi7iKYd2yxf2kKUD-124" target="OtRgwi7iKYd2yxf2kKUD-46">
          <mxGeometry relative="1" as="geometry">
            <mxPoint x="450.1" y="595" as="sourcePoint" />
            <mxPoint x="522.1" y="558" as="targetPoint" />
          </mxGeometry>
        </mxCell>
        <mxCell id="OtRgwi7iKYd2yxf2kKUD-127" value="" style="endArrow=none;html=1;rounded=0;exitX=0;exitY=0.5;exitDx=0;exitDy=0;entryX=1;entryY=0.75;entryDx=0;entryDy=0;" edge="1" parent="1" source="OtRgwi7iKYd2yxf2kKUD-123" target="OtRgwi7iKYd2yxf2kKUD-18">
          <mxGeometry relative="1" as="geometry">
            <mxPoint x="160" y="560" as="sourcePoint" />
            <mxPoint x="50" y="570" as="targetPoint" />
          </mxGeometry>
        </mxCell>
        <mxCell id="OtRgwi7iKYd2yxf2kKUD-128" value="N" style="resizable=0;html=1;whiteSpace=wrap;align=right;verticalAlign=bottom;" connectable="0" vertex="1" parent="OtRgwi7iKYd2yxf2kKUD-127">
          <mxGeometry x="1" relative="1" as="geometry" />
        </mxCell>
        <mxCell id="OtRgwi7iKYd2yxf2kKUD-129" value="" style="endArrow=none;html=1;rounded=0;entryX=0;entryY=0.5;entryDx=0;entryDy=0;exitX=1;exitY=0.5;exitDx=0;exitDy=0;" edge="1" parent="1" source="OtRgwi7iKYd2yxf2kKUD-123" target="OtRgwi7iKYd2yxf2kKUD-46">
          <mxGeometry relative="1" as="geometry">
            <mxPoint x="302.1" y="647" as="sourcePoint" />
            <mxPoint x="267.1" y="614" as="targetPoint" />
          </mxGeometry>
        </mxCell>
        <mxCell id="OtRgwi7iKYd2yxf2kKUD-130" value="1" style="resizable=0;html=1;whiteSpace=wrap;align=right;verticalAlign=bottom;" connectable="0" vertex="1" parent="OtRgwi7iKYd2yxf2kKUD-129">
          <mxGeometry x="1" relative="1" as="geometry" />
        </mxCell>
        <mxCell id="OtRgwi7iKYd2yxf2kKUD-132" value="enroll" style="shape=rhombus;perimeter=rhombusPerimeter;whiteSpace=wrap;html=1;align=center;" vertex="1" parent="1">
          <mxGeometry x="490" y="470" width="80" height="60" as="geometry" />
        </mxCell>
        <mxCell id="OtRgwi7iKYd2yxf2kKUD-133" value="take" style="shape=rhombus;perimeter=rhombusPerimeter;whiteSpace=wrap;html=1;align=center;" vertex="1" parent="1">
          <mxGeometry x="640" y="453.25" width="80" height="60" as="geometry" />
        </mxCell>
        <mxCell id="OtRgwi7iKYd2yxf2kKUD-139" value="" style="endArrow=none;html=1;rounded=0;entryX=0.35;entryY=1;entryDx=0;entryDy=0;entryPerimeter=0;exitX=1;exitY=0;exitDx=0;exitDy=0;" edge="1" parent="1" source="OtRgwi7iKYd2yxf2kKUD-46" target="OtRgwi7iKYd2yxf2kKUD-63">
          <mxGeometry relative="1" as="geometry">
            <mxPoint x="540" y="400" as="sourcePoint" />
            <mxPoint x="700" y="400" as="targetPoint" />
            <Array as="points">
              <mxPoint x="640" y="480" />
            </Array>
          </mxGeometry>
        </mxCell>
        <mxCell id="OtRgwi7iKYd2yxf2kKUD-140" value="M" style="resizable=0;html=1;whiteSpace=wrap;align=left;verticalAlign=bottom;" connectable="0" vertex="1" parent="OtRgwi7iKYd2yxf2kKUD-139">
          <mxGeometry x="-1" relative="1" as="geometry" />
        </mxCell>
        <mxCell id="OtRgwi7iKYd2yxf2kKUD-141" value="N" style="resizable=0;html=1;whiteSpace=wrap;align=right;verticalAlign=bottom;" connectable="0" vertex="1" parent="OtRgwi7iKYd2yxf2kKUD-139">
          <mxGeometry x="1" relative="1" as="geometry" />
        </mxCell>
        <mxCell id="OtRgwi7iKYd2yxf2kKUD-145" value="" style="endArrow=none;html=1;rounded=0;entryX=0.5;entryY=0;entryDx=0;entryDy=0;exitX=0.5;exitY=1;exitDx=0;exitDy=0;" edge="1" parent="1" source="OtRgwi7iKYd2yxf2kKUD-132" target="OtRgwi7iKYd2yxf2kKUD-46">
          <mxGeometry relative="1" as="geometry">
            <mxPoint x="190" y="540" as="sourcePoint" />
            <mxPoint x="350" y="540" as="targetPoint" />
          </mxGeometry>
        </mxCell>
        <mxCell id="OtRgwi7iKYd2yxf2kKUD-146" value="1" style="resizable=0;html=1;whiteSpace=wrap;align=right;verticalAlign=bottom;" connectable="0" vertex="1" parent="OtRgwi7iKYd2yxf2kKUD-145">
          <mxGeometry x="1" relative="1" as="geometry" />
        </mxCell>
        <mxCell id="OtRgwi7iKYd2yxf2kKUD-147" value="" style="endArrow=none;html=1;rounded=0;entryX=1;entryY=1;entryDx=0;entryDy=0;exitX=0.5;exitY=0;exitDx=0;exitDy=0;" edge="1" parent="1" source="OtRgwi7iKYd2yxf2kKUD-132" target="OtRgwi7iKYd2yxf2kKUD-17">
          <mxGeometry relative="1" as="geometry">
            <mxPoint x="190" y="540" as="sourcePoint" />
            <mxPoint x="350" y="540" as="targetPoint" />
          </mxGeometry>
        </mxCell>
        <mxCell id="OtRgwi7iKYd2yxf2kKUD-148" value="N" style="resizable=0;html=1;whiteSpace=wrap;align=right;verticalAlign=bottom;" connectable="0" vertex="1" parent="OtRgwi7iKYd2yxf2kKUD-147">
          <mxGeometry x="1" relative="1" as="geometry" />
        </mxCell>
        <mxCell id="OtRgwi7iKYd2yxf2kKUD-150" value="" style="shape=link;html=1;rounded=0;entryX=1;entryY=0.25;entryDx=0;entryDy=0;exitX=0;exitY=0.5;exitDx=0;exitDy=0;" edge="1" parent="1" source="OtRgwi7iKYd2yxf2kKUD-118" target="OtRgwi7iKYd2yxf2kKUD-18">
          <mxGeometry relative="1" as="geometry">
            <mxPoint x="270" y="540" as="sourcePoint" />
            <mxPoint x="430" y="540" as="targetPoint" />
          </mxGeometry>
        </mxCell>
        <mxCell id="OtRgwi7iKYd2yxf2kKUD-151" value="N" style="resizable=0;html=1;whiteSpace=wrap;align=right;verticalAlign=bottom;" connectable="0" vertex="1" parent="OtRgwi7iKYd2yxf2kKUD-150">
          <mxGeometry x="1" relative="1" as="geometry" />
        </mxCell>
        <mxCell id="OtRgwi7iKYd2yxf2kKUD-152" value="" style="shape=link;html=1;rounded=0;entryX=0.75;entryY=1;entryDx=0;entryDy=0;exitX=0.5;exitY=0;exitDx=0;exitDy=0;" edge="1" parent="1" source="OtRgwi7iKYd2yxf2kKUD-101" target="OtRgwi7iKYd2yxf2kKUD-1">
          <mxGeometry relative="1" as="geometry">
            <mxPoint x="-160" y="454.5" as="sourcePoint" />
            <mxPoint y="454.5" as="targetPoint" />
          </mxGeometry>
        </mxCell>
        <mxCell id="OtRgwi7iKYd2yxf2kKUD-153" value="1" style="resizable=0;html=1;whiteSpace=wrap;align=right;verticalAlign=bottom;" connectable="0" vertex="1" parent="OtRgwi7iKYd2yxf2kKUD-152">
          <mxGeometry x="1" relative="1" as="geometry" />
        </mxCell>
        <mxCell id="OtRgwi7iKYd2yxf2kKUD-154" value=" guide" style="shape=rhombus;perimeter=rhombusPerimeter;whiteSpace=wrap;html=1;align=center;" vertex="1" parent="1">
          <mxGeometry x="261.05" y="570" width="37.9" height="30" as="geometry" />
        </mxCell>
        <mxCell id="OtRgwi7iKYd2yxf2kKUD-157" value="includes" style="shape=rhombus;perimeter=rhombusPerimeter;whiteSpace=wrap;html=1;align=center;" vertex="1" parent="1">
          <mxGeometry x="490" y="319" width="80" height="60" as="geometry" />
        </mxCell>
        <mxCell id="OtRgwi7iKYd2yxf2kKUD-159" value="" style="endArrow=none;html=1;rounded=0;entryX=0;entryY=0.25;entryDx=0;entryDy=0;exitX=1;exitY=0.75;exitDx=0;exitDy=0;" edge="1" parent="1" source="OtRgwi7iKYd2yxf2kKUD-17" target="OtRgwi7iKYd2yxf2kKUD-63">
          <mxGeometry relative="1" as="geometry">
            <mxPoint x="390" y="340" as="sourcePoint" />
            <mxPoint x="722" y="370" as="targetPoint" />
            <Array as="points">
              <mxPoint x="530" y="320" />
              <mxPoint x="570" y="350" />
            </Array>
          </mxGeometry>
        </mxCell>
        <mxCell id="OtRgwi7iKYd2yxf2kKUD-160" value="M" style="resizable=0;html=1;whiteSpace=wrap;align=left;verticalAlign=bottom;" connectable="0" vertex="1" parent="OtRgwi7iKYd2yxf2kKUD-159">
          <mxGeometry x="-1" relative="1" as="geometry" />
        </mxCell>
        <mxCell id="OtRgwi7iKYd2yxf2kKUD-161" value="N" style="resizable=0;html=1;whiteSpace=wrap;align=right;verticalAlign=bottom;" connectable="0" vertex="1" parent="OtRgwi7iKYd2yxf2kKUD-159">
          <mxGeometry x="1" relative="1" as="geometry" />
        </mxCell>
        <mxCell id="OtRgwi7iKYd2yxf2kKUD-162" value=" have" style="shape=rhombus;perimeter=rhombusPerimeter;whiteSpace=wrap;html=1;align=center;" vertex="1" parent="1">
          <mxGeometry x="780" y="425" width="80" height="60" as="geometry" />
        </mxCell>
        <mxCell id="OtRgwi7iKYd2yxf2kKUD-163" value="" style="endArrow=none;html=1;rounded=0;entryX=0.892;entryY=1.05;entryDx=0;entryDy=0;entryPerimeter=0;" edge="1" parent="1" source="OtRgwi7iKYd2yxf2kKUD-162" target="OtRgwi7iKYd2yxf2kKUD-63">
          <mxGeometry relative="1" as="geometry">
            <mxPoint x="250" y="540" as="sourcePoint" />
            <mxPoint x="410" y="540" as="targetPoint" />
          </mxGeometry>
        </mxCell>
        <mxCell id="OtRgwi7iKYd2yxf2kKUD-164" value="1" style="resizable=0;html=1;whiteSpace=wrap;align=right;verticalAlign=bottom;" connectable="0" vertex="1" parent="OtRgwi7iKYd2yxf2kKUD-163">
          <mxGeometry x="1" relative="1" as="geometry" />
        </mxCell>
        <mxCell id="OtRgwi7iKYd2yxf2kKUD-165" value="" style="endArrow=none;html=1;rounded=0;entryX=0.5;entryY=0;entryDx=0;entryDy=0;labelBackgroundColor=none;" edge="1" parent="1" source="OtRgwi7iKYd2yxf2kKUD-162" target="OtRgwi7iKYd2yxf2kKUD-74">
          <mxGeometry relative="1" as="geometry">
            <mxPoint x="250" y="540" as="sourcePoint" />
            <mxPoint x="410" y="540" as="targetPoint" />
          </mxGeometry>
        </mxCell>
        <mxCell id="OtRgwi7iKYd2yxf2kKUD-166" value="N" style="resizable=0;html=1;whiteSpace=wrap;align=right;verticalAlign=bottom;" connectable="0" vertex="1" parent="OtRgwi7iKYd2yxf2kKUD-165">
          <mxGeometry x="1" relative="1" as="geometry" />
        </mxCell>
        <mxCell id="OtRgwi7iKYd2yxf2kKUD-167" value="  belong" style="shape=rhombus;perimeter=rhombusPerimeter;whiteSpace=wrap;html=1;align=center;" vertex="1" parent="1">
          <mxGeometry x="298.95" y="120" width="80" height="60" as="geometry" />
        </mxCell>
        <mxCell id="OtRgwi7iKYd2yxf2kKUD-170" value="" style="endArrow=none;html=1;rounded=0;entryX=1;entryY=0;entryDx=0;entryDy=0;exitX=0;exitY=0.5;exitDx=0;exitDy=0;" edge="1" parent="1" source="OtRgwi7iKYd2yxf2kKUD-167" target="OtRgwi7iKYd2yxf2kKUD-1">
          <mxGeometry relative="1" as="geometry">
            <mxPoint x="250" y="370" as="sourcePoint" />
            <mxPoint x="410" y="370" as="targetPoint" />
          </mxGeometry>
        </mxCell>
        <mxCell id="OtRgwi7iKYd2yxf2kKUD-171" value="N" style="resizable=0;html=1;whiteSpace=wrap;align=right;verticalAlign=bottom;" connectable="0" vertex="1" parent="OtRgwi7iKYd2yxf2kKUD-170">
          <mxGeometry x="1" relative="1" as="geometry" />
        </mxCell>
        <mxCell id="OtRgwi7iKYd2yxf2kKUD-172" value="" style="endArrow=none;html=1;rounded=0;exitX=1;exitY=0.5;exitDx=0;exitDy=0;entryX=0.125;entryY=0.05;entryDx=0;entryDy=0;entryPerimeter=0;" edge="1" parent="1" source="OtRgwi7iKYd2yxf2kKUD-167" target="OtRgwi7iKYd2yxf2kKUD-63">
          <mxGeometry relative="1" as="geometry">
            <mxPoint x="250" y="370" as="sourcePoint" />
            <mxPoint x="680" y="310" as="targetPoint" />
          </mxGeometry>
        </mxCell>
        <mxCell id="OtRgwi7iKYd2yxf2kKUD-173" value="1" style="resizable=0;html=1;whiteSpace=wrap;align=right;verticalAlign=bottom;" connectable="0" vertex="1" parent="OtRgwi7iKYd2yxf2kKUD-172">
          <mxGeometry x="1" relative="1" as="geometry" />
        </mxCell>
        <mxCell id="OtRgwi7iKYd2yxf2kKUD-174" value="taught" style="shape=rhombus;perimeter=rhombusPerimeter;whiteSpace=wrap;html=1;align=center;" vertex="1" parent="1">
          <mxGeometry x="362.1" y="990" width="80" height="60" as="geometry" />
        </mxCell>
        <mxCell id="OtRgwi7iKYd2yxf2kKUD-175" value="" style="endArrow=none;html=1;rounded=0;entryX=0.25;entryY=1;entryDx=0;entryDy=0;exitX=0.911;exitY=0.417;exitDx=0;exitDy=0;exitPerimeter=0;" edge="1" parent="1" source="OtRgwi7iKYd2yxf2kKUD-174" target="OtRgwi7iKYd2yxf2kKUD-74">
          <mxGeometry relative="1" as="geometry">
            <mxPoint x="763" y="738.75" as="sourcePoint" />
            <mxPoint x="730" y="667.75" as="targetPoint" />
          </mxGeometry>
        </mxCell>
        <mxCell id="OtRgwi7iKYd2yxf2kKUD-176" value="1" style="resizable=0;html=1;whiteSpace=wrap;align=right;verticalAlign=bottom;" connectable="0" vertex="1" parent="OtRgwi7iKYd2yxf2kKUD-175">
          <mxGeometry x="1" relative="1" as="geometry" />
        </mxCell>
        <mxCell id="OtRgwi7iKYd2yxf2kKUD-177" value="" style="endArrow=none;html=1;rounded=0;labelBackgroundColor=none;exitX=0.099;exitY=0.5;exitDx=0;exitDy=0;exitPerimeter=0;" edge="1" parent="1" source="OtRgwi7iKYd2yxf2kKUD-174" target="OtRgwi7iKYd2yxf2kKUD-18">
          <mxGeometry relative="1" as="geometry">
            <mxPoint x="360" y="1020" as="sourcePoint" />
            <mxPoint x="-110" y="862" as="targetPoint" />
            <Array as="points">
              <mxPoint x="30" y="910" />
              <mxPoint x="-140" y="700" />
            </Array>
          </mxGeometry>
        </mxCell>
        <mxCell id="OtRgwi7iKYd2yxf2kKUD-178" value="N" style="resizable=0;html=1;whiteSpace=wrap;align=right;verticalAlign=bottom;" connectable="0" vertex="1" parent="OtRgwi7iKYd2yxf2kKUD-177">
          <mxGeometry x="1" relative="1" as="geometry" />
        </mxCell>
        <mxCell id="OtRgwi7iKYd2yxf2kKUD-179" value="register" style="shape=rhombus;perimeter=rhombusPerimeter;whiteSpace=wrap;html=1;align=center;" vertex="1" parent="1">
          <mxGeometry x="640" y="620" width="80" height="60" as="geometry" />
        </mxCell>
        <mxCell id="OtRgwi7iKYd2yxf2kKUD-180" value="" style="endArrow=none;html=1;rounded=0;entryX=0;entryY=1;entryDx=0;entryDy=0;exitX=1;exitY=0.5;exitDx=0;exitDy=0;" edge="1" parent="1" source="OtRgwi7iKYd2yxf2kKUD-46" target="OtRgwi7iKYd2yxf2kKUD-74">
          <mxGeometry relative="1" as="geometry">
            <mxPoint x="572" y="637" as="sourcePoint" />
            <mxPoint x="722" y="370" as="targetPoint" />
            <Array as="points">
              <mxPoint x="680" y="620" />
            </Array>
          </mxGeometry>
        </mxCell>
        <mxCell id="OtRgwi7iKYd2yxf2kKUD-181" value="M" style="resizable=0;html=1;whiteSpace=wrap;align=left;verticalAlign=bottom;" connectable="0" vertex="1" parent="OtRgwi7iKYd2yxf2kKUD-180">
          <mxGeometry x="-1" relative="1" as="geometry" />
        </mxCell>
        <mxCell id="OtRgwi7iKYd2yxf2kKUD-182" value="N" style="resizable=0;html=1;whiteSpace=wrap;align=right;verticalAlign=bottom;" connectable="0" vertex="1" parent="OtRgwi7iKYd2yxf2kKUD-180">
          <mxGeometry x="1" relative="1" as="geometry" />
        </mxCell>
        <mxCell id="OtRgwi7iKYd2yxf2kKUD-183" value="associated&amp;nbsp;" style="shape=rhombus;perimeter=rhombusPerimeter;whiteSpace=wrap;html=1;align=center;" vertex="1" parent="1">
          <mxGeometry x="-80" y="420" width="80" height="60" as="geometry" />
        </mxCell>
      </root>
    </mxGraphModel>
  </diagram>
</mxfile>
